<svg width="780" height="780" viewBox="0 0 780 780" fill="none" xmlns="http://www.w3.org/2000/svg">
<path d="M712.694 556.493L530.819 85.9686L516.614 50L461.666 50.1383C450.937 50.166 441.213 53.4309 431.245 56.8617C406.365 66.6286 386.265 88.9014 376.569 114.079L348.076 188.036L270.72 390.042H131.87L119.511 422.137L0 729.972H215.745L266.944 596.335H513.083L532.069 645.585L564.364 730H780L712.694 556.493ZM356.034 355.346L378.823 295.638L390.149 266.337L408.375 314.203L437.383 390.042H342.942L356.034 355.346ZM219.33 523.236L167.886 657.233L104.871 657.15L161.938 510.37L180.353 462.753L537.257 462.698L453.898 244.756L426.437 172.653L434.885 150.85C440.914 135.218 451.616 124.483 468.456 123.099L486.057 168.06L623.277 523.208H219.33V523.236ZM612.331 657.233L588.891 596.307H651.797L675.102 657.122L612.331 657.233Z" fill="white"/>
<path d="M368.23 50.0553C360.217 59.0198 354.296 68.2056 348.782 78.5812C341.476 92.8856 335.962 107.577 330.557 122.684L311.517 122.823L287.37 185.602L231.716 329.421H155.446L174.731 278.982L200.29 213.297L263.359 50L368.23 50.0553Z" fill="white"/>
</svg>
